 <svg viewBox="0 0 350 203.1022208334839"  class="mb-4" xmlns="http://www.w3.org/2000/svg"><path d="M36.9,28v8.6h25.8V28H36.9z M60.9,34.7h-22v-4.8h22V34.7z"></path><path d="M94.2,62.5L93,59c3.1-0.6,5.5-3.3,5.5-6.6c0-3.7-3-6.7-6.7-6.7c-3.4,0-6.2,2.5-6.7,5.8H81c-0.2-5.3-0.9-9-1-9.2l-0.2-0.8   h-8c0-1-0.1-2.8-0.4-4.9c0.3-0.1,0.7-0.3,1.1-0.6c0.9-0.8,1.4-2.3,1.4-4.2c0-1.7-0.6-2.6-1.2-3c-1-0.8-2.4-0.8-3.3-0.7   c-0.7-2.1-1.7-4.3-3-6.3l4.3-3.9c0.5,0.2,1,0.4,1.5,0.4c1.8,0,3.3-1.5,3.3-3.3s-1.5-3.3-3.3-3.3S69,13,69,14.8   c0,0.6,0.2,1.2,0.4,1.6l-4,3.6c-0.6-0.8-1.3-1.6-2-2.3c-3.6-3.6-8.1-5.4-13.6-5.4c-5.4,0-10,1.8-13.6,5.4c-0.7,0.7-1.4,1.5-1.9,2.3   l-3.9-3.6c0.3-0.5,0.4-1,0.4-1.6c0-1.8-1.5-3.3-3.3-3.3s-3.3,1.5-3.3,3.3s1.5,3.3,3.3,3.3c0.5,0,1.1-0.1,1.5-0.4l4.2,3.8   c-1.3,2-2.3,4.2-3,6.4c-0.9-0.1-2.3-0.2-3.3,0.7c-0.6,0.4-1.3,1.3-1.2,3c0.1,2,0.5,3.4,1.4,4.2c0.4,0.4,0.8,0.6,1.1,0.6   c-0.3,2.2-0.4,3.9-0.4,4.9h-8l-0.2,0.8c0,0.2-0.8,3.9-1,9.2h-4.1c-0.5-3.3-3.3-5.8-6.7-5.8c-3.7,0-6.7,3-6.7,6.7   c0,3.3,2.4,6,5.5,6.6l-1.2,3.5c-2.1,0.2-3.8,1.9-3.8,4.1c0,2.3,1.8,4.1,4.1,4.1s4.1-1.8,4.1-4.1c0-1.7-1-3.2-2.5-3.8l1.2-3.7   c3.1-0.3,5.6-2.7,6-5.8h4c0,0.8,0,1.7,0,2.6c0.2,7.1,1.7,17,7.6,24.3c5.3,6.5,13.2,9.8,23.6,9.8c10.3,0,18.3-3.3,23.6-9.8   c5.9-7.2,7.4-17.2,7.6-24.3c0-0.9,0-1.7,0-2.6h4.1c0.4,3,2.9,5.5,6,5.8l1.2,3.7c-1.5,0.6-2.5,2.1-2.5,3.8c0,2.3,1.8,4.1,4.1,4.1   c2.3,0,4.1-1.8,4.1-4.1C97.9,64.4,96.3,62.7,94.2,62.5z M72.3,13.4c0.8,0,1.4,0.6,1.4,1.4c0,0.8-0.6,1.4-1.4,1.4s-1.4-0.6-1.4-1.4   C70.9,14,71.5,13.4,72.3,13.4z M26.1,14.8c0-0.8,0.6-1.4,1.4-1.4c0.8,0,1.4,0.6,1.4,1.4c0,0.8-0.6,1.4-1.4,1.4   C26.7,16.3,26.1,15.6,26.1,14.8z M6.8,68.6v-2H4.9v2c-0.7-0.4-1.3-1.1-1.3-2c0-1.2,1-2.2,2.2-2.2s2.2,1,2.2,2.2   C8.1,67.4,7.6,68.2,6.8,68.6z M8,57.2c-2.7,0-4.9-2.2-4.9-4.9c0-2.7,2.2-4.9,4.9-4.9c2.7,0,4.9,2.2,4.9,4.9   C12.8,55.1,10.7,57.2,8,57.2z M71.6,30.1c0.3,0.3,0.5,0.8,0.5,1.5c-0.1,1.9-0.6,2.7-0.9,3c-0.1-0.4-0.1-0.8-0.2-1.2   c-0.2-1.1-0.5-2.3-0.9-3.5C70.5,29.8,71.2,29.8,71.6,30.1z M27.6,31.6c0-0.7,0.1-1.2,0.5-1.5c0.4-0.3,1-0.4,1.6-0.3   c-0.4,1.2-0.7,2.4-0.9,3.5c-0.1,0.4-0.2,0.8-0.2,1.2C28.2,34.3,27.7,33.6,27.6,31.6z M37.6,19.1c3.2-3.2,7.3-4.9,12.2-4.9   c4.9,0,9,1.6,12.2,4.9c6.8,6.8,7.8,18.9,7.9,22.3H29.7C29.8,38,30.8,25.9,37.6,19.1z M71.9,78.9C67,85,59.6,88,49.8,88   c-9.7,0-17.2-3-22.1-9.1c-9.6-11.8-7-31.5-6.3-35.6h6.4h44.1h6.4C79,47.4,81.6,67.2,71.9,78.9z M86.9,52.4c0-2.7,2.2-4.9,4.9-4.9   c2.7,0,4.9,2.2,4.9,4.9c0,2.7-2.2,4.9-4.9,4.9C89.1,57.2,86.9,55.1,86.9,52.4z M94.8,68.6v-2h-1.9v2c-0.7-0.4-1.3-1.1-1.3-2   c0-1.2,1-2.2,2.2-2.2c1.2,0,2.2,1,2.2,2.2C96.1,67.4,95.5,68.2,94.8,68.6z"></path>

 <path d="M0.24 9.66 l0 -2.88 l11.24 0 l0 2.88 l-3.94 0 l0 10.34 l-3.36 0 l0 -10.34 l-3.94 0 z M21.5 16.04 l-5.92 0 c0.08 1.34 0.46 1.92 1.76 1.92 c0.8 0 1.28 -0.22 1.42 -0.94 l2.74 0.48 c-0.52 1.74 -1.76 2.78 -4.26 2.78 c-3.12 0 -4.92 -1.62 -4.92 -4.84 c0 -2.6 1.16 -5.06 4.78 -5.06 c2.94 0 4.4 1.62 4.4 4.64 l0 1.02 z M16.98 12.6 c-0.76 0 -1.2 0.36 -1.36 1.54 l2.6 0 l0 -0.02 c0 -1.1 -0.42 -1.52 -1.24 -1.52 z M28.66 16.68 l2.9 0.58 c-0.54 1.78 -1.58 3.02 -4.16 3.02 c-3.24 0 -4.68 -1.82 -4.68 -4.98 c0 -3.7 2.04 -4.92 4.76 -4.92 c2.56 0 4.24 1.22 4.02 3.34 l-3.06 0.62 c0.18 -1.26 -0.44 -1.64 -1 -1.64 c-1.34 0 -1.48 1.44 -1.48 2.78 c0 1.66 0.4 2.48 1.48 2.48 c0.76 0 1.22 -0.48 1.22 -1.28 z M38.9 20 l0 -5.34 c0 -1.1 -0.26 -1.64 -0.9 -1.64 c-1.12 0 -1.68 1.44 -1.84 2 l0 4.98 l-3.12 0 l0 -14.36 l3.12 0 l0 6.12 c0.38 -0.6 1.2 -1.38 2.88 -1.38 c1.38 0 2.98 0.56 2.98 3.48 l0 6.14 l-3.12 0 z M43.38 23.62 l1.48 -2 c0.02 0.04 0.44 0.72 1.02 0.72 s0.92 -0.32 1.1 -1.3 l0.2 -1.12 l-4.16 -9.26 l3.54 0 l1.46 3.74 c0.24 0.64 0.44 1.38 0.58 1.96 c0.12 -0.56 0.28 -1.24 0.5 -1.96 l1.1 -3.74 l3.36 0 l-3.6 9.5 l-0.26 1.46 c-0.3 1.64 -1.24 3.22 -3.7 3.22 c-1.92 0 -2.62 -1.22 -2.62 -1.22 z M54.08 16.34 l3.3 -0.68 c0.02 1.4 1.1 1.84 2.2 1.84 c1.04 0 1.64 -0.38 1.64 -1 c0 -2.1 -6.78 -1.14 -6.78 -5.94 c0 -2.64 2.04 -4.06 5.1 -4.06 c3.08 0 5.02 1.46 4.92 3.58 l-3.3 0.68 c-0.02 -0.54 -0.14 -1.48 -1.7 -1.48 c-1.08 0 -1.62 0.44 -1.62 1.04 c0 2.18 6.78 1.04 6.78 5.82 c0 2.4 -1.7 4.14 -5.08 4.14 c-3.6 0 -5.58 -1.96 -5.46 -3.94 z M74.89999999999999 20.1 c-2.14 0.34 -2.98 -0.52 -3.24 -1.22 c-0.48 0.68 -1.2 1.4 -2.66 1.4 c-1.7 0 -3.16 -0.96 -3.16 -2.74 c0 -2.16 2.14 -3.14 5.4 -3.16 l0 -0.28 c0 -1.06 -0.26 -1.44 -1.02 -1.44 c-0.72 0 -1.06 0.34 -0.96 1.24 l-3.1 -0.58 c-0.2 -1.62 1.24 -2.94 4.28 -2.94 c2.86 0 3.92 1.18 3.92 3.76 l0 2.2 c0 1.02 0.04 1.54 1.1 1.3 z M71.24 16.88 l0 -0.74 c-1.22 0.02 -2.26 0.24 -2.26 1.16 c0 0.52 0.34 0.76 0.86 0.76 c0.6 0 1.32 -0.32 1.4 -1.18 z M76.54 13.84 c0 -2.14 1.58 -3.46 4.5 -3.46 c0.94 0 1.74 0.14 2.4 0.42 c0.22 -0.28 0.3 -0.5 0.3 -1.1 l0 -1.14 l2.46 0.38 c0.06 0.36 0.08 0.66 0.08 0.86 c0 0.82 -0.34 1.52 -1.42 2.04 c0.38 0.5 0.6 1.16 0.6 1.92 c0 2.2 -1.66 3.5 -4.52 3.5 c-0.66 0 -1.24 -0.06 -1.76 -0.2 c-0.2 0.16 -0.32 0.34 -0.32 0.52 c0 0.76 1.9 0.7 3.38 0.8 c2.48 0.18 3.94 0.88 3.94 2.92 c0 2.78 -2.68 3.54 -5.1 3.54 c-2.68 0 -4.76 -0.92 -4.76 -2.56 c0 -1.02 0.76 -1.64 1.62 -2.16 c-1 -0.26 -1.62 -0.86 -1.62 -1.74 c0 -0.76 0.48 -1.38 1.34 -2.04 c-0.74 -0.58 -1.12 -1.44 -1.12 -2.5 z M82.14 20.86 c-1.08 -0.06 -1.48 -0.1 -2.26 -0.18 c-0.7 0.48 -0.88 0.74 -0.88 1.04 c0 0.44 0.38 0.9 2.08 0.9 c1.38 0 2.28 -0.3 2.28 -0.96 c0 -0.46 -0.42 -0.76 -1.22 -0.8 z M80.98 15.2 c0.82 0 1.24 -0.5 1.24 -1.4 c0 -0.88 -0.42 -1.36 -1.22 -1.36 s-1.22 0.5 -1.22 1.4 c0 0.84 0.36 1.36 1.2 1.36 z M96.10000000000001 16.04 l-5.92 0 c0.08 1.34 0.46 1.92 1.76 1.92 c0.8 0 1.28 -0.22 1.42 -0.94 l2.74 0.48 c-0.52 1.74 -1.76 2.78 -4.26 2.78 c-3.12 0 -4.92 -1.62 -4.92 -4.84 c0 -2.6 1.16 -5.06 4.78 -5.06 c2.94 0 4.4 1.62 4.4 4.64 l0 1.02 z M91.58000000000001 12.6 c-0.76 0 -1.2 0.36 -1.36 1.54 l2.6 0 l0 -0.02 c0 -1.1 -0.42 -1.52 -1.24 -1.52 z"></path>
 
 </svg>
    